<svg xmlns:osb="http://www.openswatchbook.org/uri/2009/osb" xmlns="http://www.w3.org/2000/svg" xmlns:xlink="http://www.w3.org/1999/xlink" height="48" width="48"><defs><linearGradient osb:paint="solid" id="a"><stop offset="0" stop-color="gray"/></linearGradient><linearGradient gradientTransform="matrix(.64786 0 0 1.2616 11.157 -266.366)" gradientUnits="userSpaceOnUse" y2="1008.816" x2="24.975" y1="1008.816" x1="14.672" id="b" xlink:href="#a"/><linearGradient y2="1008.816" x2="24.975" y1="1008.816" x1="14.672" gradientTransform="matrix(0 .92136 -1.2616 0 1296.728 991.095)" gradientUnits="userSpaceOnUse" id="c" xlink:href="#a"/></defs><g transform="matrix(1.00543 0 0 1 -.01 -1004.362)" stroke-width=".997"><circle cx="24" cy="1029.362" r="16.441" fill="none" stroke="gray" stroke-width="5.103" stroke-linecap="round" stroke-linejoin="round"/><path d="M17.656 1009.805c-6.654 2.098-10.335 5.39-12.956 11.017-5.145-5.794-1.896-9.337 1.162-11.885 3.057-2.55 7.355-4.934 11.9.996zM30.107 1009.805c6.653 2.098 10.335 5.39 12.955 11.017 5.145-5.794 1.896-9.337-1.161-11.885-3.058-2.55-7.356-4.934-11.901.996z" fill="red" fill-rule="evenodd"/><path d="M21.537 1006.362h4.926v0" fill="none" stroke="url(#b)" stroke-width="3.989" stroke-linecap="round" stroke-linejoin="round" stroke-miterlimit="2.4"/><path d="M24 1005.856v7.006" fill="none" stroke="url(#c)" stroke-width="2.992" stroke-linejoin="round" stroke-miterlimit="2.4"/><path style="line-height:normal;text-indent:0;text-align:start;text-decoration-line:none;text-decoration-style:solid;text-decoration-color:#000;text-transform:none;white-space:normal;isolation:auto;mix-blend-mode:normal;solid-color:#000;solid-opacity:1" d="M31.177 1027.643l-7.772-.959c-3.186-.035-3.253 5.597.076 5.442l7.853-.704c2.936-.104 2.822-3.728-.157-3.778z" color="#000" font-weight="400" font-family="sans-serif" overflow="visible" fill="#999" fill-rule="evenodd"/><path d="M22.71 1018.197l-.96 9.245c-.035 3.79 4.652 3.987 4.496.026l-.704-9.34c-.065-1.907-2.663-1.753-2.832.068z" style="line-height:normal;text-indent:0;text-align:start;text-decoration-line:none;text-decoration-style:solid;text-decoration-color:#000;text-transform:none;white-space:normal;isolation:auto;mix-blend-mode:normal;solid-color:#000;solid-opacity:1" color="#000" font-weight="400" font-family="sans-serif" overflow="visible" fill="#999" fill-rule="evenodd"/><path d="M11 1052.36c.01-7.975 5.83-7.043 6.997-7.478M37.095 1052.36c-.01-7.975-5.829-7.043-6.997-7.478" fill="none" stroke="gray" stroke-width="3.989"/><circle cy="1029.362" cx="24" r="13.5" fill="none" stroke="#fff" stroke-linecap="round" stroke-linejoin="round"/></g></svg>